<?xml version="1.0" encoding="UTF-8" standalone="no"?>
<svg width="163" xmlns="http://www.w3.org/2000/svg" viewBox="0 0 163 133" height="133">
 <metadata>
  <x:xmpmeta x:xmptk="Adobe XMP Core 5.6-c142 79.160924, 2017/07/13-01:06:39        " xmlns:x="adobe:ns:meta/">
   <rdf:RDF xmlns:rdf="http://www.w3.org/1999/02/22-rdf-syntax-ns#">
    <rdf:Description rdf:about=""/>
   </rdf:RDF>
  </x:xmpmeta>
 </metadata>
 <defs>
  <style>.cls-1 {
        fill: #bc7d00;
        fill-opacity: 0.9;
        fill-rule: evenodd;
      }</style>
 </defs>
 <path id="twitter" d="m1075 962.31l-15.28 15.313v2.552a33.052 33.052 0 0 1 -1.1 8.069c-0.36 21.063-7.06 49-34.56 71.053-54.1 43.37-112.06 5.1-112.06 5.1 45.844 0 45.844-15.31 45.844-15.31-10.188 0-30.563-20.42-30.563-20.42 5.094 5.1 15.282 0 15.282 0-25.47-15.31-25.47-30.626-25.47-30.626 5.094 5.106 15.282 0 15.282 0-25.469-20.418-10.188-45.941-10.188-45.941 5.094 25.523 71.313 35.732 71.313 35.732l0.842-0.423a60.7 60.7 0 0 1 -0.842 -9.786c0.03-18.32 14.83-30.62 33.13-30.62a32.857 32.857 0 0 1 25.04 11.7l2.97-1.49 15.3-10.21-10.19 20.418z" transform="translate(-912 -947)" class="cls-1"/>
</svg>
